<svg xmlns="http://www.w3.org/2000/svg" viewBox="0 0 729.9 456.94"><defs><style>.cls-1{fill:#7fff00;}.cls-2{fill:none;stroke:#666;stroke-linecap:round;stroke-miterlimit:10;stroke-width:62px;}</style></defs><title>Asset 1</title><g id="Layer_2" data-name="Layer 2"><g id="Layer_1-2" data-name="Layer 1"><g id="layer1"><g id="g132"><path id="path134" class="cls-1" d="M408.43,374.37c-14.52,10.1-26.26,10.34-35,7.12-11.8-15.75-25.34-36.31-33.77-58.16-4.82-12.51-7.51-25.22-7.21-36.44a173.81,173.81,0,0,1,2.33-33.35,129.58,129.58,0,0,1,11.94-35.7c2-4.07,5.6-11.48,10.12-20.18a157.43,157.43,0,0,0,13.07-30,328,328,0,0,0,10.73-41.78,330.94,330.94,0,0,1-15.69,38.36,160.73,160.73,0,0,1-16.05,26.86A196.29,196.29,0,0,0,337,210.46c-3.78,8.12-29.88,52.63-11.14,114.28a238,238,0,0,0,20.25,42.47c-6.61.77-16.43-.21-26.13-9-16.9-15.31-58.53-68.73-41.1-131.82s68.37-95.32,83.45-122a76.89,76.89,0,0,0,7.91-53.29S514.15,263.21,408.43,374.37Z"/></g></g><path class="cls-2" d="M530.19,102.94c9.13,8.47,53.67,51.51,57,122,3.62,76.53-44.13,126.1-52,134"/><path class="cls-2" d="M613.19,31.94c13.69,13,80.42,79.27,85.42,187.77,5.42,117.78-66.13,194.07-77.93,206.23"/><path class="cls-2" d="M195.63,99.32c-8.86,8.75-52,53.19-53.08,123.75-1.17,76.61,48.13,124.63,56.25,132.28"/><path class="cls-2" d="M110.41,31C97.15,44.46,32.56,112.79,31,221.39,29.37,339.29,103.31,413.26,115.49,425"/></g></g></svg>