<svg xmlns="http://www.w3.org/2000/svg" viewBox="0 0 693.9 440.94"><defs><style>.cls-1{fill:lime;}.cls-2{fill:none;stroke:#ccc;stroke-linecap:round;stroke-miterlimit:10;stroke-width:46px;}</style></defs><title>Asset 6</title><g id="Layer_2" data-name="Layer 2"><g id="Layer_1-2" data-name="Layer 1"><path id="path134" class="cls-1" d="M384.88,341c-12.57,8.8-22.6,9.19-30.06,6.59-9.84-13.18-21.09-30.42-28-48.83-3.93-10.54-6-21.28-5.59-30.81a148.71,148.71,0,0,1,2.5-28.34,113.38,113.38,0,0,1,10.76-30.48c1.81-3.48,5-9.82,9-17.28a137.62,137.62,0,0,0,11.63-25.7,283.1,283.1,0,0,0,9.82-35.61,290.23,290.23,0,0,1-14,32.79,141.26,141.26,0,0,1-14.14,23A175.86,175.86,0,0,0,326.39,203C323,209.92,300,248.09,315.1,300.12a192.26,192.26,0,0,0,16.65,35.72c-5.67.76-14.05.08-22.2-7.22-14.2-12.73-48.95-57.42-33.08-111.22s59.91-82,73.21-104.86a65.58,65.58,0,0,0,7.58-45.35S477,245,384.88,341Z"/><path class="cls-2" d="M502.19,94.94c9.13,8.47,53.67,51.51,57,122,3.62,76.53-44.13,126.1-52,134"/><path class="cls-2" d="M585.19,23.94c13.69,13,80.42,79.27,85.42,187.77,5.42,117.78-66.13,194.07-77.93,206.23"/><path class="cls-2" d="M187.63,91.32c-8.86,8.75-52,53.19-53.08,123.75-1.17,76.61,48.13,124.63,56.25,132.28"/><path class="cls-2" d="M102.41,23C89.15,36.46,24.56,104.79,23,213.39,21.37,331.29,95.31,405.26,107.49,417"/></g></g></svg>